<svg xmlns="http://www.w3.org/2000/svg" viewBox="0 0 500 500" width="100%" height="100%">
  <!-- Background -->
  <rect width="500" height="500" fill="transparent"/>

  <!-- Cyan Swirl S -->
  <path d="M 285,155 C 240,135 185,160 215,200 C 245,240 325,230 305,285 C 285,340 195,315 210,270 C 215,255 230,250 240,258 C 250,266 245,280 238,285 C 230,290 260,305 275,280 C 290,250 220,225 200,195 C 178,160 235,130 280,150 Z" 
        fill="#00d8e6"/>
  <path d="M 290,152 C 220,115 170,180 220,215 C 280,255 315,290 270,320 C 230,345 180,310 205,270" 
        fill="none" 
        stroke="#00d5e2" 
        stroke-width="26" 
        stroke-linecap="round" 
        stroke-linejoin="round"/>

  <!-- Lavender Airplane at top tip -->
  <g transform="translate(182, 128) rotate(-35) scale(1.1)">
    <!-- Plane fuselage & wings -->
    <path d="M 0,0 L 20,-8 L 26,-22 L 29,-20 L 25,-6 L 44,-1 L 50,-7 L 53,-6 L 48,3 L 53,11 L 50,12 L 44,7 L 25,11 L 29,24 L 26,26 L 20,13 L 0,7 Z" 
          fill="#ad96f8"/>
  </g>

  <!-- Typography: SOFIA TRAVEL -->
  <text x="250" y="395" 
        text-anchor="middle" 
        fill="#18181b" 
        font-family="'Playfair Display', Georgia, 'Times New Roman', serif" 
        font-size="34" 
        font-weight="900" 
        letter-spacing="5">
    SOFIA TRAVEL
  </text>
</svg>
